<svg width="512" height="512" viewBox="0 0 512 512" fill="none" xmlns="http://www.w3.org/2000/svg">
<rect width="512" height="512" rx="99" fill="#4630AA"/>
<path d="M256.214 348.791C256.42 348.967 256.723 349.228 257.109 349.568C257.882 350.247 258.986 351.242 260.312 352.504C262.962 355.029 266.497 358.621 270.03 362.889C277.108 371.437 284.137 382.643 284.138 393.396C284.138 404.195 280.979 412.511 275.9 418.125C270.823 423.738 263.81 426.669 256.058 426.669C248.305 426.669 241.291 423.738 236.214 418.125C231.136 412.511 227.977 404.194 227.977 393.396C227.977 382.643 235.007 371.437 242.085 362.889C245.618 358.622 249.152 355.029 251.803 352.504C253.128 351.242 254.232 350.247 255.005 349.568C255.391 349.228 255.695 348.967 255.901 348.791C255.962 348.74 256.014 348.695 256.058 348.658C256.101 348.695 256.153 348.74 256.214 348.791ZM255.866 372.637C252.859 376.208 250.094 380.014 248.079 383.616C246.068 387.211 244.787 390.633 244.787 393.425C244.787 396.466 245.148 400.564 246.729 403.91C247.522 405.587 248.625 407.084 250.15 408.161C251.678 409.241 253.616 409.888 256.058 409.888C258.499 409.888 260.436 409.24 261.964 408.161C263.49 407.084 264.593 405.587 265.386 403.91C266.967 400.564 267.328 396.466 267.328 393.425C267.328 390.633 266.047 387.211 264.036 383.616C262.021 380.014 259.256 376.208 256.249 372.637L256.058 372.409L255.866 372.637ZM256.028 87.301C256.165 88.3956 256.364 89.8741 256.644 91.6799C257.286 95.8311 258.351 101.713 260.041 108.638C263.42 122.485 269.299 140.513 279.298 157.217C295.704 184.599 314.632 205.615 314.632 247.879C314.632 251.091 314.259 254.248 313.655 257.381L313.602 257.663L313.889 257.678C318.551 257.907 323.435 258.939 328.521 260.277C331.064 260.945 333.654 261.689 336.29 262.447C338.925 263.204 341.606 263.974 344.327 264.695C355.21 267.575 366.764 269.658 378.726 266.874L378.724 266.861C390.009 264.22 399.367 258.672 405.904 253.784C409.179 251.336 411.748 249.052 413.499 247.379C414.061 246.842 414.537 246.364 414.927 245.968C414.693 246.408 414.415 246.935 414.089 247.538C412.987 249.577 411.373 252.512 409.321 256.1C405.219 263.275 399.369 273.056 392.381 283.481C385.392 293.906 377.267 304.971 368.614 314.717C359.959 324.465 350.786 332.881 341.704 338.018C318.181 351.342 299.152 354.52 284.846 351.604C270.546 348.689 260.932 339.682 256.23 328.561L256 328.016L255.77 328.561C251.068 339.683 241.461 348.689 227.165 351.604C212.862 354.519 193.834 351.342 170.296 338.018C161.221 332.873 152.052 324.455 143.398 314.705C134.747 304.958 126.62 293.893 119.63 283.47C112.64 273.047 106.788 263.269 102.683 256.096C100.63 252.51 99.0143 249.575 97.9121 247.537C97.586 246.934 97.3075 246.409 97.0732 245.969C97.4632 246.365 97.9388 246.842 98.501 247.379C100.252 249.052 102.821 251.336 106.096 253.784C112.644 258.68 122.022 264.239 133.332 266.874C145.294 269.658 156.848 267.568 167.73 264.684C170.451 263.963 173.133 263.191 175.768 262.434C178.404 261.676 180.994 260.932 183.536 260.264C188.622 258.928 193.506 257.9 198.168 257.678L198.457 257.664L198.402 257.38C197.799 254.277 197.426 251.091 197.426 247.879C197.426 206.936 215.189 185.934 231.215 159.767L232.76 157.217C242.759 140.499 248.638 122.471 252.017 108.627C253.706 101.704 254.771 95.825 255.414 91.676C255.694 89.872 255.892 88.3947 256.028 87.301ZM255.834 156.055C253.962 159.828 251.887 163.631 249.669 167.347C246.757 172.219 243.817 176.831 240.961 181.303C227.688 202.078 217.149 218.547 217.149 247.907C217.149 249.658 217.354 251.521 217.76 253.61V253.611L222.203 276.262L199.125 277.373C194.979 277.577 189.533 279.002 183.701 280.667L181.183 281.392C171.139 284.249 159.888 287.5 147.346 287.845L146.86 287.859L147.153 288.246C157.715 302.213 169.309 314.798 180.002 320.855L180.003 320.856C193.897 328.684 206.636 332.861 216.909 332.861C223.357 332.861 227.968 331.239 231.258 328.919C234.538 326.606 236.487 323.61 237.642 320.871L256.028 291.651L274.415 320.871C275.569 323.595 277.52 326.592 280.8 328.908C284.09 331.232 288.7 332.861 295.148 332.861C305.422 332.861 318.189 328.712 332.056 320.855L332.085 320.838L332.109 320.814L332.113 320.809C342.799 314.774 354.382 302.17 364.962 288.217L365.256 287.829L364.77 287.817C353.77 287.515 343.781 285.01 334.747 282.455L330.934 281.364C324.378 279.495 318.131 277.693 313.439 277.37L312.99 277.344L289.911 276.233L294.355 253.581C294.762 251.492 294.966 249.63 294.966 247.879C294.966 218.519 284.427 202.049 271.154 181.275V181.274C268.298 176.831 265.358 172.219 262.446 167.347L262.445 167.346L261.612 165.948C259.691 162.681 257.92 159.357 256.281 156.055L256.058 155.604L255.834 156.055ZM305.141 291.776C311.498 290.776 318.995 292.482 324.926 294.455C327.886 295.44 330.448 296.488 332.269 297.29C333.179 297.691 333.903 298.031 334.4 298.27C334.583 298.357 334.734 298.432 334.853 298.49C334.758 298.583 334.637 298.701 334.491 298.841C334.092 299.222 333.507 299.769 332.766 300.432C331.282 301.758 329.17 303.547 326.659 305.399C321.786 308.992 315.437 312.798 309.266 313.942L308.669 314.043C302.278 315.063 297.604 314.504 294.419 312.938C291.245 311.377 289.527 308.808 289.049 305.741V305.74L289.007 305.453C288.611 302.488 289.476 299.621 291.934 297.232C294.479 294.757 298.75 292.781 305.141 291.776ZM187.189 294.455C193.12 292.482 200.617 290.776 206.975 291.776V291.775C213.366 292.794 217.63 294.771 220.172 297.242C222.705 299.705 223.545 302.674 223.066 305.741C222.588 308.807 220.871 311.369 217.697 312.926C214.512 314.489 209.838 315.049 203.446 314.043C197.089 313.043 190.486 309.107 185.456 305.399C182.945 303.547 180.833 301.758 179.35 300.432C178.608 299.769 178.024 299.222 177.625 298.841C177.478 298.701 177.357 298.582 177.262 298.49C177.381 298.431 177.532 298.357 177.715 298.27C178.212 298.031 178.937 297.691 179.848 297.29C181.668 296.488 184.229 295.44 187.189 294.455ZM256.112 196.543C256.259 196.681 256.474 196.887 256.748 197.156C257.296 197.696 258.08 198.494 259.021 199.521C260.902 201.575 263.411 204.548 265.92 208.222C270.941 215.574 275.945 225.708 275.945 236.887C275.945 248.066 270.941 258.2 265.92 265.552C263.411 269.225 260.902 272.199 259.021 274.253C258.08 275.28 257.296 276.078 256.748 276.617C256.474 276.887 256.259 277.093 256.112 277.231C256.093 277.249 256.075 277.266 256.058 277.281C256.041 277.266 256.022 277.249 256.003 277.231C255.857 277.093 255.642 276.887 255.368 276.617C254.82 276.078 254.036 275.28 253.096 274.253C251.214 272.199 248.705 269.226 246.196 265.552C241.175 258.2 236.171 248.066 236.171 236.887C236.171 225.708 241.175 215.574 246.196 208.222C248.705 204.548 251.214 201.575 253.096 199.521C254.036 198.494 254.82 197.696 255.368 197.156C255.642 196.887 255.857 196.681 256.003 196.543C256.022 196.525 256.041 196.507 256.058 196.491C256.075 196.507 256.093 196.525 256.112 196.543Z" fill="white" stroke="white" stroke-width="0.5"/>
</svg>
