<svg width="1130" height="376" viewBox="0 0 1130 376" fill="none" xmlns="http://www.w3.org/2000/svg">
<g filter="url(#filter0_d_35_455)">
<path d="M295.669 195.551C271.868 201.09 249.653 187.271 230.901 186.348C231.507 183.203 231.882 180.03 231.882 176.798C231.882 134.447 212.899 113.358 196.512 86.0086C176.548 52.6585 173.029 14 173.029 14C173.029 14 169.509 52.6296 149.545 86.0086C133.159 113.358 114.176 134.447 114.176 176.798C114.176 180.03 114.551 183.232 115.156 186.348C96.4042 187.242 74.1901 201.09 50.3891 195.551C27.8576 190.3 13 173.394 13 173.394C13 173.394 50.7353 246.499 87.1724 267.155C134.313 293.841 163.537 279.965 173 257.577C182.463 279.965 211.716 293.841 258.828 267.155C295.294 246.528 333 173.394 333 173.394C333 173.394 318.142 190.3 295.611 195.551H295.669ZM248.932 249.557C235.084 257.404 222.362 261.53 212.149 261.53C199.34 261.53 193.916 255.067 191.637 249.672L173.029 220.102L154.421 249.672C152.142 255.096 146.718 261.53 133.909 261.53C123.696 261.53 111.002 257.375 97.1255 249.557C86.4799 243.528 74.9113 230.978 64.3523 217.015C76.9308 216.669 88.211 213.409 98.2506 210.552C105.03 208.591 111.435 206.773 116.137 206.542L139.506 205.417L135.005 182.482C134.601 180.405 134.399 178.558 134.399 176.827C134.399 147.545 144.9 131.129 158.171 110.358C161.027 105.886 163.97 101.27 166.884 96.3945C169.105 92.6729 171.182 88.8647 173.058 85.0854C174.933 88.8647 176.981 92.6729 179.232 96.3945C182.145 101.27 185.088 105.886 187.944 110.329C201.215 131.101 211.716 147.516 211.716 176.798C211.716 178.529 211.514 180.376 211.11 182.453L206.61 205.388L229.978 206.514C234.68 206.744 241.085 208.591 247.865 210.524C257.876 213.409 269.156 216.64 281.763 216.986C271.175 230.949 259.607 243.528 248.961 249.528L248.932 249.557Z" fill="url(#paint0_linear_35_455)"/>
<path d="M173.058 125.071C173.058 125.071 152.921 143.304 152.921 165.807C152.921 188.309 173.058 206.542 173.058 206.542C173.058 206.542 193.195 188.309 193.195 165.807C193.195 143.304 173.058 125.071 173.058 125.071Z" fill="url(#paint1_linear_35_455)"/>
<path d="M124.014 220.448C111.175 218.428 93.8369 227.343 93.8369 227.343C93.8369 227.343 107.569 241.191 120.407 243.21C133.245 245.23 139.333 240.989 140.314 234.699C141.294 228.41 136.852 222.496 124.014 220.448Z" fill="url(#paint2_linear_35_455)"/>
<path d="M222.102 220.448C209.264 222.467 204.792 228.41 205.802 234.699C206.783 240.989 212.87 245.258 225.708 243.21C238.546 241.191 252.279 227.343 252.279 227.343C252.279 227.343 234.94 218.428 222.102 220.448Z" fill="url(#paint3_linear_35_455)"/>
<path d="M173.057 277.253C173.057 277.253 144.727 300.621 144.727 322.316C144.727 344.011 157.421 355.839 173.057 355.839C188.694 355.839 201.388 344.011 201.388 322.316C201.388 300.621 173.057 277.253 173.057 277.253ZM173.057 338.558C163.479 338.558 162.037 328.403 162.037 322.345C162.037 316.892 167.057 308.843 173.057 301.717C179.058 308.843 184.078 316.892 184.078 322.345C184.078 328.403 182.635 338.558 173.057 338.558Z" fill="url(#paint4_linear_35_455)"/>
<path d="M173.214 277.711C173.42 277.887 173.723 278.148 174.109 278.487C174.882 279.167 175.986 280.162 177.312 281.424C179.962 283.949 183.497 287.541 187.03 291.809C194.108 300.357 201.137 311.563 201.138 322.315C201.138 333.114 197.979 341.431 192.9 347.045C187.823 352.658 180.81 355.589 173.058 355.589C165.305 355.589 158.291 352.658 153.214 347.045C148.136 341.431 144.977 333.114 144.977 322.315C144.977 311.562 152.007 300.357 159.085 291.809C162.618 287.541 166.152 283.949 168.803 281.424C170.128 280.162 171.232 279.167 172.005 278.487C172.391 278.148 172.695 277.887 172.901 277.711C172.962 277.659 173.014 277.615 173.058 277.578C173.101 277.615 173.153 277.659 173.214 277.711ZM172.866 301.557C169.859 305.127 167.094 308.934 165.079 312.536C163.068 316.131 161.787 319.553 161.787 322.345C161.787 325.386 162.148 329.484 163.729 332.83C164.522 334.507 165.625 336.004 167.15 337.081C168.678 338.16 170.616 338.808 173.058 338.808C175.499 338.808 177.436 338.16 178.964 337.081C180.49 336.004 181.593 334.507 182.386 332.83C183.967 329.484 184.328 325.386 184.328 322.345C184.328 319.553 183.047 316.131 181.036 312.536C179.021 308.934 176.256 305.127 173.249 301.557L173.058 301.329L172.866 301.557ZM173.028 16.2207C173.165 17.3152 173.364 18.7938 173.644 20.5996C174.286 24.7508 175.351 30.6329 177.041 37.5576C180.42 51.405 186.299 69.4329 196.298 86.1367C212.704 113.519 231.632 134.535 231.632 176.799C231.632 180.011 231.259 183.168 230.655 186.301L230.602 186.583L230.889 186.598C235.551 186.827 240.435 187.859 245.521 189.196C248.064 189.865 250.654 190.609 253.29 191.366C255.925 192.123 258.606 192.894 261.327 193.614C272.21 196.495 283.764 198.578 295.726 195.794L295.724 195.78C307.009 193.139 316.367 187.592 322.904 182.704C326.179 180.256 328.748 177.972 330.499 176.299C331.061 175.762 331.537 175.284 331.927 174.888C331.693 175.328 331.415 175.854 331.089 176.458C329.987 178.496 328.373 181.432 326.321 185.02C322.219 192.194 316.369 201.976 309.381 212.4C302.392 222.826 294.267 233.891 285.614 243.637C276.959 253.385 267.786 261.8 258.704 266.938C235.181 280.262 216.152 283.439 201.846 280.523C187.546 277.609 177.932 268.602 173.23 257.48L173 256.936L172.77 257.48C168.068 268.602 158.461 277.609 144.165 280.523C129.862 283.439 110.834 280.262 87.2959 266.938C78.2213 261.793 69.0522 253.374 60.3984 243.625C51.7468 233.878 43.6203 222.813 36.6299 212.39C29.6399 201.967 23.7875 192.188 19.6826 185.016C17.6302 181.429 16.0143 178.495 14.9121 176.457C14.586 175.854 14.3075 175.328 14.0732 174.889C14.4632 175.285 14.9388 175.762 15.501 176.299C17.2519 177.972 19.8211 180.256 23.0957 182.704C29.6436 187.6 39.0222 193.158 50.332 195.794C62.2942 198.578 73.8481 196.487 84.7305 193.604C87.4514 192.882 90.1325 192.111 92.7676 191.354C95.4037 190.596 97.9936 189.851 100.536 189.184C105.622 187.848 110.506 186.82 115.168 186.598L115.457 186.584L115.402 186.3C114.799 183.196 114.426 180.011 114.426 176.799C114.426 135.856 132.189 114.854 148.215 88.6865L149.76 86.1367C159.759 69.4185 165.638 51.3907 169.017 37.5469C170.706 30.624 171.771 24.7446 172.414 20.5957C172.694 18.7917 172.892 17.3144 173.028 16.2207ZM172.834 84.9746C170.962 88.748 168.887 92.5505 166.669 96.2666C163.757 101.138 160.817 105.751 157.961 110.223C144.688 130.997 134.149 147.467 134.149 176.827C134.149 178.578 134.354 180.44 134.76 182.529V182.53L139.203 205.182L116.125 206.293C111.979 206.496 106.533 207.922 100.701 209.587L98.1826 210.312C88.1392 213.169 76.888 216.419 64.3457 216.765L63.8604 216.778L64.1533 217.166C74.7146 231.132 86.3089 243.718 97.002 249.774L97.0029 249.775C110.897 257.604 123.636 261.78 133.909 261.78C140.357 261.78 144.968 260.159 148.258 257.839C151.538 255.526 153.487 252.529 154.642 249.791L173.028 220.57L191.415 249.791C192.569 252.515 194.52 255.511 197.8 257.828C201.09 260.152 205.7 261.78 212.148 261.78C222.422 261.78 235.189 257.632 249.056 249.774L249.085 249.758L249.109 249.733L249.113 249.729C259.799 243.694 271.382 231.09 281.962 217.137L282.256 216.749L281.77 216.736C270.77 216.434 260.781 213.93 251.747 211.375L247.934 210.283C241.378 208.414 235.131 206.612 230.439 206.29L229.99 206.264L206.911 205.152L211.355 182.501C211.762 180.412 211.966 178.549 211.966 176.799C211.966 147.438 201.427 130.969 188.154 110.194V110.193C185.298 105.751 182.358 101.138 179.446 96.2666L179.445 96.2656L178.612 94.8682C176.691 91.6005 174.92 88.2771 173.281 84.9746L173.058 84.5234L172.834 84.9746ZM222.141 220.695C228.498 219.695 235.995 221.402 241.926 223.375C244.886 224.36 247.448 225.408 249.269 226.21C250.179 226.611 250.903 226.951 251.4 227.189C251.583 227.277 251.734 227.352 251.853 227.41C251.758 227.503 251.637 227.621 251.491 227.761C251.092 228.142 250.507 228.689 249.766 229.352C248.282 230.677 246.17 232.467 243.659 234.318C238.786 237.911 232.437 241.718 226.266 242.861L225.669 242.963C219.278 243.983 214.604 243.424 211.419 241.857C208.245 240.297 206.527 237.728 206.049 234.661V234.66L206.007 234.373C205.611 231.408 206.476 228.54 208.934 226.151C211.479 223.677 215.75 221.701 222.141 220.695ZM104.189 223.375C110.12 221.402 117.617 219.695 123.975 220.695V220.694C130.366 221.714 134.63 223.691 137.172 226.162C139.705 228.624 140.545 231.594 140.066 234.661C139.588 237.727 137.871 240.289 134.697 241.846C131.512 243.408 126.838 243.968 120.446 242.963C114.089 241.963 107.486 238.027 102.456 234.318C99.9449 232.467 97.8333 230.677 96.3496 229.352C95.608 228.689 95.0238 228.142 94.625 227.761C94.478 227.62 94.3568 227.502 94.2617 227.409C94.3805 227.351 94.5325 227.277 94.7148 227.189C95.2118 226.951 95.9374 226.611 96.8477 226.21C98.6684 225.408 101.229 224.36 104.189 223.375ZM173.112 125.463C173.259 125.601 173.474 125.806 173.748 126.076C174.296 126.616 175.08 127.413 176.021 128.44C177.902 130.495 180.411 133.468 182.92 137.142C187.941 144.494 192.945 154.627 192.945 165.807C192.945 176.986 187.941 187.12 182.92 194.472C180.411 198.145 177.902 201.119 176.021 203.173C175.08 204.2 174.296 204.997 173.748 205.537C173.474 205.807 173.259 206.013 173.112 206.15C173.093 206.169 173.075 206.185 173.058 206.201C173.041 206.185 173.022 206.169 173.003 206.15C172.857 206.013 172.642 205.807 172.368 205.537C171.82 204.997 171.036 204.2 170.096 203.173C168.214 201.119 165.705 198.145 163.196 194.472C158.175 187.12 153.171 176.986 153.171 165.807C153.171 154.627 158.175 144.494 163.196 137.142C165.705 133.468 168.214 130.495 170.096 128.44C171.036 127.413 171.82 126.616 172.368 126.076C172.642 125.806 172.857 125.601 173.003 125.463C173.022 125.445 173.041 125.427 173.058 125.411C173.075 125.427 173.093 125.444 173.112 125.463Z" stroke="url(#paint5_linear_35_455)" stroke-width="0.5"/>
</g>
<path d="M468.994 154.646V243.513H453.064L423.401 184.98V243.513H407.776V154.646H423.462L453.369 213.728V154.646H468.994ZM481.507 212.934V208.112C481.507 202.945 482.137 198.387 483.399 194.441C484.66 190.453 486.45 187.116 488.77 184.431C491.089 181.745 493.856 179.711 497.071 178.327C500.326 176.944 503.927 176.252 507.874 176.252C511.902 176.252 515.524 176.944 518.738 178.327C521.993 179.711 524.781 181.745 527.1 184.431C529.46 187.116 531.25 190.453 532.471 194.441C533.732 198.387 534.363 202.945 534.363 208.112V212.934C534.363 218.102 533.732 222.659 532.471 226.606C531.25 230.553 529.46 233.89 527.1 236.616C524.781 239.301 521.993 241.336 518.738 242.719C515.524 244.062 511.943 244.734 507.996 244.734C504.049 244.734 500.448 244.062 497.193 242.719C493.978 241.336 491.191 239.301 488.831 236.616C486.471 233.89 484.66 230.553 483.399 226.606C482.137 222.659 481.507 218.102 481.507 212.934ZM497.193 208.112V212.934C497.193 216.149 497.437 218.936 497.925 221.296C498.413 223.615 499.125 225.548 500.061 227.094C501.038 228.641 502.177 229.8 503.479 230.573C504.822 231.306 506.328 231.672 507.996 231.672C509.786 231.672 511.353 231.306 512.696 230.573C514.038 229.8 515.157 228.641 516.052 227.094C516.948 225.548 517.619 223.615 518.067 221.296C518.514 218.936 518.738 216.149 518.738 212.934V208.112C518.738 204.979 518.474 202.233 517.945 199.873C517.456 197.513 516.744 195.56 515.808 194.013C514.872 192.467 513.733 191.307 512.39 190.534C511.048 189.72 509.542 189.314 507.874 189.314C506.246 189.314 504.781 189.72 503.479 190.534C502.177 191.307 501.038 192.467 500.061 194.013C499.125 195.56 498.413 197.513 497.925 199.873C497.437 202.233 497.193 204.979 497.193 208.112ZM543.885 212.934V208.112C543.885 202.945 544.515 198.387 545.777 194.441C547.038 190.453 548.828 187.116 551.148 184.431C553.467 181.745 556.234 179.711 559.448 178.327C562.704 176.944 566.305 176.252 570.252 176.252C574.28 176.252 577.901 176.944 581.116 178.327C584.371 179.711 587.158 181.745 589.478 184.431C591.838 187.116 593.628 190.453 594.849 194.441C596.11 198.387 596.741 202.945 596.741 208.112V212.934C596.741 218.102 596.11 222.659 594.849 226.606C593.628 230.553 591.838 233.89 589.478 236.616C587.158 239.301 584.371 241.336 581.116 242.719C577.901 244.062 574.321 244.734 570.374 244.734C566.427 244.734 562.826 244.062 559.571 242.719C556.356 241.336 553.569 239.301 551.209 236.616C548.849 233.89 547.038 230.553 545.777 226.606C544.515 222.659 543.885 218.102 543.885 212.934ZM559.571 208.112V212.934C559.571 216.149 559.815 218.936 560.303 221.296C560.791 223.615 561.503 225.548 562.439 227.094C563.416 228.641 564.555 229.8 565.857 230.573C567.2 231.306 568.705 231.672 570.374 231.672C572.164 231.672 573.731 231.306 575.073 230.573C576.416 229.8 577.535 228.641 578.43 227.094C579.326 225.548 579.997 223.615 580.445 221.296C580.892 218.936 581.116 216.149 581.116 212.934V208.112C581.116 204.979 580.851 202.233 580.323 199.873C579.834 197.513 579.122 195.56 578.186 194.013C577.25 192.467 576.111 191.307 574.768 190.534C573.426 189.72 571.92 189.314 570.252 189.314C568.624 189.314 567.159 189.72 565.857 190.534C564.555 191.307 563.416 192.467 562.439 194.013C561.503 195.56 560.791 197.513 560.303 199.873C559.815 202.233 559.571 204.979 559.571 208.112ZM623.963 191.206V243.513H608.338V177.473H623.169L623.963 191.206ZM639.71 176.984L639.588 192.548C638.774 192.386 637.858 192.264 636.841 192.182C635.865 192.101 634.949 192.06 634.094 192.06C632.182 192.06 630.534 192.386 629.151 193.037C627.767 193.688 626.608 194.624 625.672 195.844C624.736 197.065 624.024 198.571 623.535 200.361C623.047 202.111 622.742 204.104 622.62 206.342L619.446 205.793C619.446 201.561 619.772 197.655 620.423 194.074C621.114 190.494 622.111 187.381 623.413 184.736C624.756 182.05 626.404 179.975 628.357 178.51C630.31 177.005 632.548 176.252 635.071 176.252C635.844 176.252 636.678 176.333 637.573 176.496C638.509 176.618 639.221 176.781 639.71 176.984ZM710.205 168.684L689.881 243.513H672.669L700.684 154.646H711.426L710.205 168.684ZM726.258 243.513L705.933 168.684L704.529 154.646H715.393L743.531 243.513H726.258ZM726.807 210.432V224.043H686.035V210.432H726.807ZM768.372 149.763V243.513H752.686V149.763H768.372ZM811.035 198.957V212.019H782.41V198.957H811.035ZM866.516 230.695L887.39 249.616L877.014 259.199L856.568 240.4L866.516 230.695ZM886.841 191.999V206.159C886.841 212.548 886.088 218.163 884.583 223.005C883.118 227.806 880.982 231.814 878.174 235.029C875.407 238.243 872.091 240.665 868.225 242.292C864.36 243.92 860.087 244.734 855.408 244.734C850.688 244.734 846.395 243.92 842.53 242.292C838.705 240.665 835.388 238.243 832.581 235.029C829.814 231.814 827.657 227.806 826.111 223.005C824.565 218.163 823.792 212.548 823.792 206.159V191.999C823.792 185.611 824.545 180.016 826.05 175.214C827.556 170.413 829.712 166.405 832.52 163.191C835.327 159.935 838.644 157.494 842.469 155.866C846.334 154.239 850.607 153.425 855.286 153.425C860.006 153.425 864.299 154.239 868.164 155.866C872.03 157.494 875.366 159.935 878.174 163.191C880.982 166.405 883.118 170.413 884.583 175.214C886.088 180.016 886.841 185.611 886.841 191.999ZM870.545 206.159V191.877C870.545 187.523 870.219 183.78 869.568 180.647C868.917 177.513 867.941 174.97 866.638 173.017C865.336 171.023 863.729 169.559 861.817 168.623C859.945 167.687 857.768 167.219 855.286 167.219C852.844 167.219 850.668 167.687 848.755 168.623C846.883 169.559 845.296 171.023 843.994 173.017C842.733 174.97 841.756 177.513 841.065 180.647C840.414 183.78 840.088 187.523 840.088 191.877V206.159C840.088 210.554 840.414 214.318 841.065 217.451C841.756 220.584 842.753 223.168 844.055 225.202C845.358 227.196 846.944 228.661 848.816 229.597C850.729 230.533 852.926 231.001 855.408 231.001C857.849 231.001 860.006 230.533 861.878 229.597C863.79 228.661 865.397 227.196 866.699 225.202C868.002 223.168 868.958 220.584 869.568 217.451C870.219 214.318 870.545 210.554 870.545 206.159ZM932.312 227.766V177.473H947.998V243.513H933.289L932.312 227.766ZM934.326 214.094L938.904 213.972C938.904 218.407 938.497 222.496 937.683 226.24C936.87 229.983 935.608 233.239 933.899 236.005C932.19 238.772 930.013 240.929 927.368 242.475C924.764 243.981 921.672 244.734 918.091 244.734C915.365 244.734 912.883 244.286 910.645 243.391C908.407 242.455 906.474 241.01 904.846 239.057C903.219 237.063 901.957 234.52 901.062 231.428C900.167 228.295 899.719 224.551 899.719 220.197V177.473H915.406V220.319C915.406 222.354 915.568 224.104 915.894 225.568C916.26 226.993 916.769 228.152 917.42 229.047C918.071 229.902 918.823 230.512 919.678 230.879C920.532 231.245 921.468 231.428 922.486 231.428C925.456 231.428 927.796 230.675 929.505 229.17C931.254 227.664 932.495 225.609 933.228 223.005C933.96 220.36 934.326 217.39 934.326 214.094ZM976.99 191.206V243.513H961.365V177.473H976.197L976.99 191.206ZM992.737 176.984L992.615 192.548C991.801 192.386 990.886 192.264 989.868 192.182C988.892 192.101 987.976 192.06 987.122 192.06C985.209 192.06 983.561 192.386 982.178 193.037C980.795 193.688 979.635 194.624 978.699 195.844C977.763 197.065 977.051 198.571 976.563 200.361C976.074 202.111 975.769 204.104 975.647 206.342L972.473 205.793C972.473 201.561 972.799 197.655 973.45 194.074C974.142 190.494 975.139 187.381 976.441 184.736C977.783 182.05 979.431 179.975 981.385 178.51C983.338 177.005 985.576 176.252 988.098 176.252C988.872 176.252 989.706 176.333 990.601 176.496C991.537 176.618 992.249 176.781 992.737 176.984ZM1029.91 229.231V197.492C1029.91 195.336 1029.62 193.627 1029.05 192.365C1028.52 191.104 1027.73 190.188 1026.67 189.619C1025.61 189.008 1024.31 188.703 1022.77 188.703C1021.1 188.703 1019.69 189.049 1018.55 189.741C1017.42 190.392 1016.56 191.348 1015.99 192.609C1015.46 193.83 1015.2 195.275 1015.2 196.943H999.512C999.512 194.176 1000.06 191.552 1001.16 189.069C1002.26 186.587 1003.85 184.39 1005.92 182.478C1008 180.525 1010.5 178.999 1013.43 177.9C1016.36 176.801 1019.63 176.252 1023.25 176.252C1027.57 176.252 1031.39 176.984 1034.73 178.449C1038.11 179.873 1040.75 182.172 1042.66 185.346C1044.62 188.479 1045.59 192.589 1045.59 197.675V227.827C1045.59 231.204 1045.78 234.073 1046.14 236.433C1046.55 238.793 1047.14 240.807 1047.91 242.475V243.513H1032.04C1031.35 241.804 1030.82 239.647 1030.46 237.043C1030.09 234.398 1029.91 231.794 1029.91 229.231ZM1031.92 203.23L1031.98 212.995H1025.39C1023.56 212.995 1021.93 213.26 1020.51 213.789C1019.12 214.318 1017.94 215.07 1016.97 216.047C1015.99 217.024 1015.26 218.183 1014.77 219.526C1014.28 220.869 1014.04 222.334 1014.04 223.921C1014.04 225.752 1014.3 227.277 1014.83 228.498C1015.36 229.678 1016.13 230.573 1017.15 231.184C1018.17 231.753 1019.41 232.038 1020.87 232.038C1022.95 232.038 1024.74 231.591 1026.25 230.695C1027.79 229.8 1028.95 228.742 1029.72 227.522C1030.54 226.26 1030.84 225.08 1030.64 223.982L1034.18 230.329C1033.77 231.835 1033.14 233.422 1032.29 235.09C1031.43 236.758 1030.33 238.325 1028.99 239.79C1027.69 241.255 1026.08 242.455 1024.17 243.391C1022.3 244.286 1020.08 244.734 1017.52 244.734C1013.9 244.734 1010.62 243.94 1007.69 242.353C1004.8 240.766 1002.52 238.528 1000.85 235.639C999.186 232.71 998.352 229.21 998.352 225.141C998.352 221.805 998.902 218.794 1000 216.108C1001.1 213.422 1002.71 211.123 1004.82 209.211C1006.98 207.299 1009.7 205.834 1013 204.817C1016.3 203.759 1020.16 203.23 1024.6 203.23H1031.92ZM1074.65 191.572V243.513H1058.96V177.473H1073.61L1074.65 191.572ZM1072.08 208.173L1067.57 208.234C1067.48 203.392 1067.95 199.018 1068.97 195.112C1070.03 191.165 1071.53 187.788 1073.49 184.98C1075.44 182.172 1077.78 180.016 1080.51 178.51C1083.23 177.005 1086.28 176.252 1089.66 176.252C1092.27 176.252 1094.63 176.7 1096.74 177.595C1098.9 178.49 1100.75 179.914 1102.3 181.867C1103.84 183.82 1105.04 186.384 1105.9 189.558C1106.75 192.732 1107.18 196.617 1107.18 201.215V243.513H1091.49V201.093C1091.49 198.123 1091.17 195.804 1090.52 194.135C1089.91 192.426 1088.99 191.226 1087.77 190.534C1086.59 189.802 1085.06 189.436 1083.19 189.436C1081.44 189.436 1079.87 189.924 1078.49 190.901C1077.11 191.836 1075.93 193.179 1074.95 194.929C1074.02 196.638 1073.3 198.632 1072.82 200.91C1072.33 203.148 1072.08 205.569 1072.08 208.173Z" fill="black"/>
<defs>
<filter id="filter0_d_35_455" x="0" y="0" width="354" height="375.839" filterUnits="userSpaceOnUse" color-interpolation-filters="sRGB">
<feFlood flood-opacity="0" result="BackgroundImageFix"/>
<feColorMatrix in="SourceAlpha" type="matrix" values="0 0 0 0 0 0 0 0 0 0 0 0 0 0 0 0 0 0 127 0" result="hardAlpha"/>
<feOffset dx="4" dy="3"/>
<feGaussianBlur stdDeviation="8.5"/>
<feComposite in2="hardAlpha" operator="out"/>
<feColorMatrix type="matrix" values="0 0 0 0 0.603922 0 0 0 0 0.431373 0 0 0 0 0.996078 0 0 0 0.3 0"/>
<feBlend mode="normal" in2="BackgroundImageFix" result="effect1_dropShadow_35_455"/>
<feBlend mode="normal" in="SourceGraphic" in2="effect1_dropShadow_35_455" result="shape"/>
</filter>
<linearGradient id="paint0_linear_35_455" x1="173" y1="14" x2="173" y2="355.839" gradientUnits="userSpaceOnUse">
<stop stop-color="#E1C9FE"/>
<stop offset="0.548077" stop-color="#9E72FE"/>
<stop offset="1" stop-color="#9468FF"/>
</linearGradient>
<linearGradient id="paint1_linear_35_455" x1="173" y1="14" x2="173" y2="355.839" gradientUnits="userSpaceOnUse">
<stop stop-color="#E1C9FE"/>
<stop offset="0.548077" stop-color="#9E72FE"/>
<stop offset="1" stop-color="#9468FF"/>
</linearGradient>
<linearGradient id="paint2_linear_35_455" x1="173" y1="14" x2="173" y2="355.839" gradientUnits="userSpaceOnUse">
<stop stop-color="#E1C9FE"/>
<stop offset="0.548077" stop-color="#9E72FE"/>
<stop offset="1" stop-color="#9468FF"/>
</linearGradient>
<linearGradient id="paint3_linear_35_455" x1="173" y1="14" x2="173" y2="355.839" gradientUnits="userSpaceOnUse">
<stop stop-color="#E1C9FE"/>
<stop offset="0.548077" stop-color="#9E72FE"/>
<stop offset="1" stop-color="#9468FF"/>
</linearGradient>
<linearGradient id="paint4_linear_35_455" x1="173" y1="14" x2="173" y2="355.839" gradientUnits="userSpaceOnUse">
<stop stop-color="#E1C9FE"/>
<stop offset="0.548077" stop-color="#9E72FE"/>
<stop offset="1" stop-color="#9468FF"/>
</linearGradient>
<linearGradient id="paint5_linear_35_455" x1="173" y1="14" x2="173" y2="355.839" gradientUnits="userSpaceOnUse">
<stop stop-color="#FFF1F8"/>
<stop offset="1" stop-color="#A978FF"/>
</linearGradient>
</defs>
</svg>
